# Blender 4.1.0
# www.blender.org
mtllib thunder_mesh.mtl
o Plane
v 0.500871 15.978394 1.178847
v -0.000000 -0.021607 0.396702
v -1.184877 15.978394 0.102625
v -0.000000 -0.021607 -0.396702
v 0.625963 15.216488 1.242041
v 0.765382 14.454584 1.302039
v 0.754289 13.692678 1.287444
v 0.631736 12.930775 1.213099
v 0.447603 12.168869 1.088907
v 0.207470 11.406965 0.887640
v -0.035640 10.645060 0.616762
v 0.074344 9.883156 0.701823
v 0.404442 9.121250 1.173127
v 0.579617 8.359345 1.607764
v 0.786803 7.597441 2.421695
v 0.818272 6.835536 3.386227
v 0.560769 6.073632 3.515879
v 0.290850 5.311726 3.017242
v 0.098426 4.549822 2.233940
v 0.008412 3.741139 1.484016
v -0.000000 2.578336 0.896959
v -0.000000 1.506716 0.668641
v -0.000000 0.765543 0.516568
v -0.000000 0.303390 0.426558
v -0.000000 0.303390 -0.426558
v -0.000000 0.765543 -0.516567
v -0.000000 1.506715 -0.668641
v -0.000000 2.575104 -0.808248
v -0.003832 3.727033 -0.489540
v -0.012031 4.549821 0.237746
v 0.073222 5.311726 1.032883
v 0.230977 6.073631 1.551816
v 0.317077 6.835536 1.502185
v 0.186585 7.597440 0.944557
v -0.233352 8.359345 0.039254
v -0.885923 9.121250 -1.257758
v -1.428165 9.883155 -2.045607
v -1.572265 10.645060 -1.741927
v -1.295195 11.406964 -0.906193
v -0.945314 12.168869 -0.199574
v -0.740603 12.930774 0.166741
v -0.727548 13.692678 0.252554
v -0.881199 14.454583 0.216319
v -1.056608 15.216488 0.161119
v -0.035640 10.645060 0.616762
v 0.074344 9.883156 0.701823
v -1.055526 -0.000000 1.055526
v 1.055526 -0.000000 1.055526
v -1.055526 -0.000000 -1.055526
v 1.055526 -0.000000 -1.055526
v 0.000000 -0.015645 -0.524539
v -0.000000 1.984355 -2.488934
v 0.102332 -0.015645 -0.514460
v 0.485567 1.984355 -2.441110
v 0.200732 -0.015645 -0.484611
v 0.952474 1.984355 -2.299475
v 0.291418 -0.015645 -0.436138
v 1.382778 1.984355 -2.069473
v 0.370905 -0.015645 -0.370905
v 1.759942 1.984355 -1.759942
v 0.436138 -0.015645 -0.291418
v 2.069473 1.984355 -1.382778
v 0.484610 -0.015645 -0.200732
v 2.299475 1.984355 -0.952474
v 0.514460 -0.015645 -0.102332
v 2.441110 1.984355 -0.485567
v 0.524539 -0.015645 0.000000
v 2.488934 1.984355 0.000000
v 0.514460 -0.015645 0.102332
v 2.441110 1.984355 0.485567
v 0.484610 -0.015645 0.200732
v 2.299475 1.984355 0.952474
v 0.436138 -0.015645 0.291418
v 2.069473 1.984355 1.382778
v 0.370905 -0.015645 0.370905
v 1.759942 1.984355 1.759942
v 0.291418 -0.015645 0.436138
v 1.382778 1.984355 2.069473
v 0.200732 -0.015645 0.484611
v 0.952474 1.984355 2.299475
v 0.102332 -0.015645 0.514460
v 0.485567 1.984355 2.441110
v 0.000000 -0.015645 0.524539
v -0.000000 1.984355 2.488934
v -0.102332 -0.015645 0.514460
v -0.485567 1.984355 2.441110
v -0.200732 -0.015645 0.484611
v -0.952474 1.984355 2.299475
v -0.291418 -0.015645 0.436138
v -1.382778 1.984355 2.069473
v -0.370905 -0.015645 0.370905
v -1.759942 1.984355 1.759942
v -0.436138 -0.015645 0.291418
v -2.069473 1.984355 1.382778
v -0.484611 -0.015645 0.200732
v -2.299475 1.984355 0.952474
v -0.514460 -0.015645 0.102332
v -2.441110 1.984355 0.485567
v -0.524539 -0.015645 0.000000
v -2.488934 1.984355 0.000000
v -0.514460 -0.015645 -0.102332
v -2.441110 1.984355 -0.485567
v -0.484611 -0.015645 -0.200732
v -2.299475 1.984355 -0.952474
v -0.436138 -0.015645 -0.291418
v -2.069473 1.984355 -1.382778
v -0.370905 -0.015645 -0.370905
v -1.759942 1.984355 -1.759942
v -0.291418 -0.015645 -0.436138
v -1.382778 1.984355 -2.069473
v -0.200732 -0.015645 -0.484611
v -0.952474 1.984355 -2.299475
v -0.102332 -0.015645 -0.514460
v -0.485567 1.984355 -2.441110
vn 0.5392 0.0224 -0.8419
vn 1.0000 -0.0000 -0.0000
vn 0.5437 0.0439 -0.8381
vn 0.5560 0.0432 -0.8300
vn 0.5679 0.0386 -0.8222
vn 0.5957 0.0384 -0.8023
vn 0.6502 0.0848 -0.7550
vn 0.7292 0.1269 -0.6724
vn 0.8161 0.1765 -0.5502
vn 0.8704 0.1253 -0.4761
vn 0.8841 -0.0397 -0.4656
vn 0.9011 -0.0966 -0.4227
vn 0.9285 -0.1967 -0.3150
vn 0.9473 -0.2339 -0.2186
vn 0.9564 -0.2242 -0.1871
vn 0.9757 -0.1760 -0.1306
vn 0.9927 -0.0917 -0.0788
vn 0.9994 -0.0206 -0.0287
vn 1.0000 -0.0006 -0.0028
vn 1.0000 -0.0002 -0.0012
vn 1.0000 -0.0017 -0.0047
vn 0.9992 -0.0247 -0.0325
vn 0.9913 -0.1010 -0.0848
vn 0.9664 -0.2020 -0.1589
vn 0.9368 -0.2154 -0.2758
vn 0.9043 -0.1061 -0.4136
vn 0.8846 -0.0496 -0.4637
vn 0.8753 0.1065 -0.4717
vn 0.8468 0.1941 -0.4953
vn 0.8345 0.2034 -0.5122
vn 0.7909 0.1492 -0.5935
vn 0.7125 0.1187 -0.6916
vn 0.6265 0.0658 -0.7766
vn 0.5736 0.0370 -0.8183
vn 0.5480 0.0476 -0.8351
vn 0.5401 0.0269 -0.8411
vn -0.0000 1.0000 -0.0000
vn -0.0000 0.7007 0.7134
vn -0.1392 0.7007 0.6997
vn -0.2730 0.7007 0.6591
vn -0.3964 0.7007 0.5932
vn -0.5045 0.7007 0.5045
vn -0.5932 0.7007 0.3964
vn -0.6591 0.7007 0.2730
vn -0.6997 0.7007 0.1392
vn -0.7134 0.7007 -0.0000
vn -0.6997 0.7007 -0.1392
vn -0.6591 0.7007 -0.2730
vn -0.5932 0.7007 -0.3964
vn -0.5045 0.7007 -0.5045
vn -0.3964 0.7007 -0.5932
vn -0.2730 0.7007 -0.6591
vn -0.1392 0.7007 -0.6997
vn -0.0000 0.7007 -0.7134
vn 0.1392 0.7007 -0.6997
vn 0.2730 0.7007 -0.6591
vn 0.3964 0.7007 -0.5932
vn 0.5045 0.7007 -0.5045
vn 0.5932 0.7007 -0.3964
vn 0.6591 0.7007 -0.2730
vn 0.6997 0.7007 -0.1392
vn 0.7134 0.7007 -0.0000
vn 0.6997 0.7007 0.1392
vn 0.6591 0.7007 0.2730
vn 0.5932 0.7007 0.3964
vn 0.5045 0.7007 0.5045
vn 0.3964 0.7007 0.5932
vn 0.2730 0.7007 0.6591
vn 0.1392 0.7007 0.6997
vt 0.000000 0.047619
vt 0.000000 0.000000
vt 1.000000 0.000000
vt 1.000000 0.047619
vt 0.000000 1.000000
vt 0.000000 0.952381
vt 1.000000 0.952381
vt 1.000000 1.000000
vt 0.000000 0.904762
vt 1.000000 0.904762
vt 0.000000 0.857143
vt 1.000000 0.857143
vt 0.000000 0.809524
vt 1.000000 0.809524
vt 0.000000 0.761905
vt 1.000000 0.761905
vt 0.000000 0.714286
vt 1.000000 0.714286
vt 0.000000 0.666667
vt 1.000000 0.666667
vt 0.000000 0.619048
vt 1.000000 0.619048
vt 0.000000 0.571429
vt 1.000000 0.571429
vt 0.000000 0.523809
vt 1.000000 0.523809
vt 0.000000 0.476190
vt 1.000000 0.476190
vt 0.000000 0.428571
vt 1.000000 0.428571
vt 0.000000 0.380952
vt 1.000000 0.380952
vt 0.000000 0.333333
vt 1.000000 0.333333
vt 0.000000 0.285714
vt 1.000000 0.285714
vt 0.000000 0.238095
vt 1.000000 0.238095
vt 0.000000 0.190476
vt 1.000000 0.190476
vt 0.000000 0.142857
vt 1.000000 0.142857
vt 0.000000 0.095238
vt 1.000000 0.095238
vt 0.000000 0.000000
vt 0.000000 1.000000
vt 0.968750 0.000000
vt 0.968750 1.000000
vt 0.937500 0.000000
vt 0.937500 1.000000
vt 0.906250 0.000000
vt 0.906250 1.000000
vt 0.875000 0.000000
vt 0.875000 1.000000
vt 0.843750 0.000000
vt 0.843750 1.000000
vt 0.812500 0.000000
vt 0.812500 1.000000
vt 0.781250 0.000000
vt 0.781250 1.000000
vt 0.750000 0.000000
vt 0.750000 1.000000
vt 0.718750 0.000000
vt 0.718750 1.000000
vt 0.687500 0.000000
vt 0.687500 1.000000
vt 0.656250 0.000000
vt 0.656250 1.000000
vt 0.625000 0.000000
vt 0.625000 1.000000
vt 0.593750 0.000000
vt 0.593750 1.000000
vt 0.562500 0.000000
vt 0.562500 1.000000
vt 0.531250 0.000000
vt 0.531250 1.000000
vt 0.500000 0.000000
vt 0.500000 1.000000
vt 0.468750 0.000000
vt 0.468750 1.000000
vt 0.437500 0.000000
vt 0.437500 1.000000
vt 0.406250 0.000000
vt 0.406250 1.000000
vt 0.375000 0.000000
vt 0.375000 1.000000
vt 0.343750 0.000000
vt 0.343750 1.000000
vt 0.312500 0.000000
vt 0.312500 1.000000
vt 0.281250 0.000000
vt 0.281250 1.000000
vt 0.250000 0.000000
vt 0.250000 1.000000
vt 0.218750 0.000000
vt 0.218750 1.000000
vt 0.187500 0.000000
vt 0.187500 1.000000
vt 0.156250 0.000000
vt 0.156250 1.000000
vt 0.125000 0.000000
vt 0.125000 1.000000
vt 0.093750 0.000000
vt 0.093750 1.000000
vt 0.062500 0.000000
vt 0.062500 1.000000
vt 0.031250 0.000000
vt 0.031250 1.000000
s 1
usemtl Material.001
f 24/1/2 2/2/2 4/3/2 25/4/2
f 1/5/1 5/6/3 44/7/36 3/8/1
f 5/6/3 6/9/4 43/10/35 44/7/36
f 6/9/4 7/11/5 42/12/34 43/10/35
f 7/11/5 8/13/6 41/14/33 42/12/34
f 8/13/6 9/15/7 40/16/32 41/14/33
f 9/15/7 10/17/8 39/18/31 40/16/32
f 10/17/8 11/19/9 38/20/30 39/18/31
f 11/19/9 12/21/10 37/22/29 38/20/30
f 12/21/10 13/23/11 36/24/28 37/22/29
f 13/23/11 14/25/12 35/26/27 36/24/28
f 14/25/12 15/27/13 34/28/26 35/26/27
f 15/27/13 16/29/14 33/30/25 34/28/26
f 16/29/14 17/31/15 32/32/24 33/30/25
f 17/31/15 18/33/16 31/34/23 32/32/24
f 18/33/16 19/35/17 30/36/22 31/34/23
f 19/35/17 20/37/18 29/38/21 30/36/22
f 20/37/18 21/39/19 28/40/20 29/38/21
f 21/39/19 22/41/2 27/42/2 28/40/20
f 22/41/2 23/43/2 26/44/2 27/42/2
f 23/43/2 24/1/2 25/4/2 26/44/2
usemtl Material.003
f 47/45/37 48/3/37 50/8/37 49/46/37
usemtl Material.002
f 51/3/38 53/47/39 54/48/39 52/8/38
f 53/47/39 55/49/40 56/50/40 54/48/39
f 55/49/40 57/51/41 58/52/41 56/50/40
f 57/51/41 59/53/42 60/54/42 58/52/41
f 59/53/42 61/55/43 62/56/43 60/54/42
f 61/55/43 63/57/44 64/58/44 62/56/43
f 63/57/44 65/59/45 66/60/45 64/58/44
f 65/59/45 67/61/46 68/62/46 66/60/45
f 67/61/46 69/63/47 70/64/47 68/62/46
f 69/63/47 71/65/48 72/66/48 70/64/47
f 71/65/48 73/67/49 74/68/49 72/66/48
f 73/67/49 75/69/50 76/70/50 74/68/49
f 75/69/50 77/71/51 78/72/51 76/70/50
f 77/71/51 79/73/52 80/74/52 78/72/51
f 79/73/52 81/75/53 82/76/53 80/74/52
f 81/75/53 83/77/54 84/78/54 82/76/53
f 83/77/54 85/79/55 86/80/55 84/78/54
f 85/79/55 87/81/56 88/82/56 86/80/55
f 87/81/56 89/83/57 90/84/57 88/82/56
f 89/83/57 91/85/58 92/86/58 90/84/57
f 91/85/58 93/87/59 94/88/59 92/86/58
f 93/87/59 95/89/60 96/90/60 94/88/59
f 95/89/60 97/91/61 98/92/61 96/90/60
f 97/91/61 99/93/62 100/94/62 98/92/61
f 99/93/62 101/95/63 102/96/63 100/94/62
f 101/95/63 103/97/64 104/98/64 102/96/63
f 103/97/64 105/99/65 106/100/65 104/98/64
f 105/99/65 107/101/66 108/102/66 106/100/65
f 107/101/66 109/103/67 110/104/67 108/102/66
f 109/103/67 111/105/68 112/106/68 110/104/67
f 111/105/68 113/107/69 114/108/69 112/106/68
f 113/107/69 51/45/38 52/46/38 114/108/69
l 45 46
